<mxfile host="app.diagrams.net" agent="Mozilla/5.0 (X11; Linux x86_64) AppleWebKit/537.36 (KHTML, like Gecko) Chrome/134.0.0.0 Safari/537.36" version="26.1.0">
  <diagram id="R2lEEEUBdFMjLlhIrx00" name="Page-1">
    <mxGraphModel dx="1332" dy="1542" grid="1" gridSize="10" guides="1" tooltips="1" connect="1" arrows="1" fold="1" page="1" pageScale="1" pageWidth="850" pageHeight="1100" background="none" math="0" shadow="0" extFonts="Permanent Marker^https://fonts.googleapis.com/css?family=Permanent+Marker">
      <root>
        <mxCell id="0" />
        <mxCell id="1" parent="0" />
        <mxCell id="o1oF44XECiAMUcl8Ltih-77" value="Tenents" style="shape=table;startSize=30;container=1;collapsible=0;childLayout=tableLayout;fontStyle=1" vertex="1" parent="1">
          <mxGeometry x="170" y="-110" width="220" height="310" as="geometry" />
        </mxCell>
        <mxCell id="o1oF44XECiAMUcl8Ltih-78" value="" style="shape=tableRow;horizontal=0;startSize=0;swimlaneHead=0;swimlaneBody=0;strokeColor=inherit;top=0;left=0;bottom=0;right=0;collapsible=0;dropTarget=0;fillColor=none;points=[[0,0.5],[1,0.5]];portConstraint=eastwest;" vertex="1" parent="o1oF44XECiAMUcl8Ltih-77">
          <mxGeometry y="30" width="220" height="40" as="geometry" />
        </mxCell>
        <mxCell id="o1oF44XECiAMUcl8Ltih-79" value="id primary key uuid" style="shape=partialRectangle;html=1;whiteSpace=wrap;connectable=0;strokeColor=inherit;overflow=hidden;fillColor=none;top=0;left=0;bottom=0;right=0;pointerEvents=1;" vertex="1" parent="o1oF44XECiAMUcl8Ltih-78">
          <mxGeometry width="220" height="40" as="geometry">
            <mxRectangle width="220" height="40" as="alternateBounds" />
          </mxGeometry>
        </mxCell>
        <mxCell id="o1oF44XECiAMUcl8Ltih-80" value="" style="shape=tableRow;horizontal=0;startSize=0;swimlaneHead=0;swimlaneBody=0;strokeColor=inherit;top=0;left=0;bottom=0;right=0;collapsible=0;dropTarget=0;fillColor=none;points=[[0,0.5],[1,0.5]];portConstraint=eastwest;" vertex="1" parent="o1oF44XECiAMUcl8Ltih-77">
          <mxGeometry y="70" width="220" height="40" as="geometry" />
        </mxCell>
        <mxCell id="o1oF44XECiAMUcl8Ltih-81" value="name varchar not null&lt;div&gt;&lt;br&gt;&lt;/div&gt;" style="shape=partialRectangle;html=1;whiteSpace=wrap;connectable=0;strokeColor=inherit;overflow=hidden;fillColor=none;top=0;left=0;bottom=0;right=0;pointerEvents=1;" vertex="1" parent="o1oF44XECiAMUcl8Ltih-80">
          <mxGeometry width="220" height="40" as="geometry">
            <mxRectangle width="220" height="40" as="alternateBounds" />
          </mxGeometry>
        </mxCell>
        <mxCell id="o1oF44XECiAMUcl8Ltih-82" value="" style="shape=tableRow;horizontal=0;startSize=0;swimlaneHead=0;swimlaneBody=0;strokeColor=inherit;top=0;left=0;bottom=0;right=0;collapsible=0;dropTarget=0;fillColor=none;points=[[0,0.5],[1,0.5]];portConstraint=eastwest;" vertex="1" parent="o1oF44XECiAMUcl8Ltih-77">
          <mxGeometry y="110" width="220" height="40" as="geometry" />
        </mxCell>
        <mxCell id="o1oF44XECiAMUcl8Ltih-83" value="email varchar unique not null" style="shape=partialRectangle;html=1;whiteSpace=wrap;connectable=0;strokeColor=inherit;overflow=hidden;fillColor=none;top=0;left=0;bottom=0;right=0;pointerEvents=1;" vertex="1" parent="o1oF44XECiAMUcl8Ltih-82">
          <mxGeometry width="220" height="40" as="geometry">
            <mxRectangle width="220" height="40" as="alternateBounds" />
          </mxGeometry>
        </mxCell>
        <mxCell id="o1oF44XECiAMUcl8Ltih-84" value="" style="shape=tableRow;horizontal=0;startSize=0;swimlaneHead=0;swimlaneBody=0;strokeColor=inherit;top=0;left=0;bottom=0;right=0;collapsible=0;dropTarget=0;fillColor=none;points=[[0,0.5],[1,0.5]];portConstraint=eastwest;" vertex="1" parent="o1oF44XECiAMUcl8Ltih-77">
          <mxGeometry y="150" width="220" height="40" as="geometry" />
        </mxCell>
        <mxCell id="o1oF44XECiAMUcl8Ltih-85" value="phone varchar nullable" style="shape=partialRectangle;html=1;whiteSpace=wrap;connectable=0;strokeColor=inherit;overflow=hidden;fillColor=none;top=0;left=0;bottom=0;right=0;pointerEvents=1;" vertex="1" parent="o1oF44XECiAMUcl8Ltih-84">
          <mxGeometry width="220" height="40" as="geometry">
            <mxRectangle width="220" height="40" as="alternateBounds" />
          </mxGeometry>
        </mxCell>
        <mxCell id="o1oF44XECiAMUcl8Ltih-86" value="" style="shape=tableRow;horizontal=0;startSize=0;swimlaneHead=0;swimlaneBody=0;strokeColor=inherit;top=0;left=0;bottom=0;right=0;collapsible=0;dropTarget=0;fillColor=none;points=[[0,0.5],[1,0.5]];portConstraint=eastwest;" vertex="1" parent="o1oF44XECiAMUcl8Ltih-77">
          <mxGeometry y="190" width="220" height="40" as="geometry" />
        </mxCell>
        <mxCell id="o1oF44XECiAMUcl8Ltih-87" value="max_slots_per_day int default 100" style="shape=partialRectangle;html=1;whiteSpace=wrap;connectable=0;strokeColor=inherit;overflow=hidden;fillColor=none;top=0;left=0;bottom=0;right=0;pointerEvents=1;" vertex="1" parent="o1oF44XECiAMUcl8Ltih-86">
          <mxGeometry width="220" height="40" as="geometry">
            <mxRectangle width="220" height="40" as="alternateBounds" />
          </mxGeometry>
        </mxCell>
        <mxCell id="o1oF44XECiAMUcl8Ltih-88" value="" style="shape=tableRow;horizontal=0;startSize=0;swimlaneHead=0;swimlaneBody=0;strokeColor=inherit;top=0;left=0;bottom=0;right=0;collapsible=0;dropTarget=0;fillColor=none;points=[[0,0.5],[1,0.5]];portConstraint=eastwest;" vertex="1" parent="o1oF44XECiAMUcl8Ltih-77">
          <mxGeometry y="230" width="220" height="40" as="geometry" />
        </mxCell>
        <mxCell id="o1oF44XECiAMUcl8Ltih-89" value="created_at datetime" style="shape=partialRectangle;html=1;whiteSpace=wrap;connectable=0;strokeColor=inherit;overflow=hidden;fillColor=none;top=0;left=0;bottom=0;right=0;pointerEvents=1;" vertex="1" parent="o1oF44XECiAMUcl8Ltih-88">
          <mxGeometry width="220" height="40" as="geometry">
            <mxRectangle width="220" height="40" as="alternateBounds" />
          </mxGeometry>
        </mxCell>
        <mxCell id="o1oF44XECiAMUcl8Ltih-90" value="" style="shape=tableRow;horizontal=0;startSize=0;swimlaneHead=0;swimlaneBody=0;strokeColor=inherit;top=0;left=0;bottom=0;right=0;collapsible=0;dropTarget=0;fillColor=none;points=[[0,0.5],[1,0.5]];portConstraint=eastwest;" vertex="1" parent="o1oF44XECiAMUcl8Ltih-77">
          <mxGeometry y="270" width="220" height="40" as="geometry" />
        </mxCell>
        <mxCell id="o1oF44XECiAMUcl8Ltih-91" value="updated_at datetime" style="shape=partialRectangle;html=1;whiteSpace=wrap;connectable=0;strokeColor=inherit;overflow=hidden;fillColor=none;top=0;left=0;bottom=0;right=0;pointerEvents=1;" vertex="1" parent="o1oF44XECiAMUcl8Ltih-90">
          <mxGeometry width="220" height="40" as="geometry">
            <mxRectangle width="220" height="40" as="alternateBounds" />
          </mxGeometry>
        </mxCell>
        <mxCell id="o1oF44XECiAMUcl8Ltih-92" value="Users" style="shape=table;startSize=30;container=1;collapsible=0;childLayout=tableLayout;fontStyle=1" vertex="1" parent="1">
          <mxGeometry x="550" y="-104" width="150" height="320" as="geometry" />
        </mxCell>
        <mxCell id="o1oF44XECiAMUcl8Ltih-93" value="" style="shape=tableRow;horizontal=0;startSize=0;swimlaneHead=0;swimlaneBody=0;strokeColor=inherit;top=0;left=0;bottom=0;right=0;collapsible=0;dropTarget=0;fillColor=none;points=[[0,0.5],[1,0.5]];portConstraint=eastwest;" vertex="1" parent="o1oF44XECiAMUcl8Ltih-92">
          <mxGeometry y="30" width="150" height="41" as="geometry" />
        </mxCell>
        <mxCell id="o1oF44XECiAMUcl8Ltih-94" value="id primary key varchar uuid" style="shape=partialRectangle;html=1;whiteSpace=wrap;connectable=0;strokeColor=inherit;overflow=hidden;fillColor=none;top=0;left=0;bottom=0;right=0;pointerEvents=1;" vertex="1" parent="o1oF44XECiAMUcl8Ltih-93">
          <mxGeometry width="150" height="41" as="geometry">
            <mxRectangle width="150" height="41" as="alternateBounds" />
          </mxGeometry>
        </mxCell>
        <mxCell id="o1oF44XECiAMUcl8Ltih-95" value="" style="shape=tableRow;horizontal=0;startSize=0;swimlaneHead=0;swimlaneBody=0;strokeColor=inherit;top=0;left=0;bottom=0;right=0;collapsible=0;dropTarget=0;fillColor=none;points=[[0,0.5],[1,0.5]];portConstraint=eastwest;" vertex="1" parent="o1oF44XECiAMUcl8Ltih-92">
          <mxGeometry y="71" width="150" height="42" as="geometry" />
        </mxCell>
        <mxCell id="o1oF44XECiAMUcl8Ltih-96" value="tenant id varchar foreign key uuid" style="shape=partialRectangle;html=1;whiteSpace=wrap;connectable=0;strokeColor=inherit;overflow=hidden;fillColor=none;top=0;left=0;bottom=0;right=0;pointerEvents=1;" vertex="1" parent="o1oF44XECiAMUcl8Ltih-95">
          <mxGeometry width="150" height="42" as="geometry">
            <mxRectangle width="150" height="42" as="alternateBounds" />
          </mxGeometry>
        </mxCell>
        <mxCell id="o1oF44XECiAMUcl8Ltih-97" value="" style="shape=tableRow;horizontal=0;startSize=0;swimlaneHead=0;swimlaneBody=0;strokeColor=inherit;top=0;left=0;bottom=0;right=0;collapsible=0;dropTarget=0;fillColor=none;points=[[0,0.5],[1,0.5]];portConstraint=eastwest;" vertex="1" parent="o1oF44XECiAMUcl8Ltih-92">
          <mxGeometry y="113" width="150" height="41" as="geometry" />
        </mxCell>
        <mxCell id="o1oF44XECiAMUcl8Ltih-98" value="name varchar not null" style="shape=partialRectangle;html=1;whiteSpace=wrap;connectable=0;strokeColor=inherit;overflow=hidden;fillColor=none;top=0;left=0;bottom=0;right=0;pointerEvents=1;" vertex="1" parent="o1oF44XECiAMUcl8Ltih-97">
          <mxGeometry width="150" height="41" as="geometry">
            <mxRectangle width="150" height="41" as="alternateBounds" />
          </mxGeometry>
        </mxCell>
        <mxCell id="o1oF44XECiAMUcl8Ltih-99" value="" style="shape=tableRow;horizontal=0;startSize=0;swimlaneHead=0;swimlaneBody=0;strokeColor=inherit;top=0;left=0;bottom=0;right=0;collapsible=0;dropTarget=0;fillColor=none;points=[[0,0.5],[1,0.5]];portConstraint=eastwest;" vertex="1" parent="o1oF44XECiAMUcl8Ltih-92">
          <mxGeometry y="154" width="150" height="42" as="geometry" />
        </mxCell>
        <mxCell id="o1oF44XECiAMUcl8Ltih-100" value="email varchar not null" style="shape=partialRectangle;html=1;whiteSpace=wrap;connectable=0;strokeColor=inherit;overflow=hidden;fillColor=none;top=0;left=0;bottom=0;right=0;pointerEvents=1;" vertex="1" parent="o1oF44XECiAMUcl8Ltih-99">
          <mxGeometry width="150" height="42" as="geometry">
            <mxRectangle width="150" height="42" as="alternateBounds" />
          </mxGeometry>
        </mxCell>
        <mxCell id="o1oF44XECiAMUcl8Ltih-101" value="" style="shape=tableRow;horizontal=0;startSize=0;swimlaneHead=0;swimlaneBody=0;strokeColor=inherit;top=0;left=0;bottom=0;right=0;collapsible=0;dropTarget=0;fillColor=none;points=[[0,0.5],[1,0.5]];portConstraint=eastwest;" vertex="1" parent="o1oF44XECiAMUcl8Ltih-92">
          <mxGeometry y="196" width="150" height="41" as="geometry" />
        </mxCell>
        <mxCell id="o1oF44XECiAMUcl8Ltih-102" value="phone varchar nullable" style="shape=partialRectangle;html=1;whiteSpace=wrap;connectable=0;strokeColor=inherit;overflow=hidden;fillColor=none;top=0;left=0;bottom=0;right=0;pointerEvents=1;" vertex="1" parent="o1oF44XECiAMUcl8Ltih-101">
          <mxGeometry width="150" height="41" as="geometry">
            <mxRectangle width="150" height="41" as="alternateBounds" />
          </mxGeometry>
        </mxCell>
        <mxCell id="o1oF44XECiAMUcl8Ltih-103" value="" style="shape=tableRow;horizontal=0;startSize=0;swimlaneHead=0;swimlaneBody=0;strokeColor=inherit;top=0;left=0;bottom=0;right=0;collapsible=0;dropTarget=0;fillColor=none;points=[[0,0.5],[1,0.5]];portConstraint=eastwest;" vertex="1" parent="o1oF44XECiAMUcl8Ltih-92">
          <mxGeometry y="237" width="150" height="42" as="geometry" />
        </mxCell>
        <mxCell id="o1oF44XECiAMUcl8Ltih-104" value="created_at datetime" style="shape=partialRectangle;html=1;whiteSpace=wrap;connectable=0;strokeColor=inherit;overflow=hidden;fillColor=none;top=0;left=0;bottom=0;right=0;pointerEvents=1;" vertex="1" parent="o1oF44XECiAMUcl8Ltih-103">
          <mxGeometry width="150" height="42" as="geometry">
            <mxRectangle width="150" height="42" as="alternateBounds" />
          </mxGeometry>
        </mxCell>
        <mxCell id="o1oF44XECiAMUcl8Ltih-105" value="" style="shape=tableRow;horizontal=0;startSize=0;swimlaneHead=0;swimlaneBody=0;strokeColor=inherit;top=0;left=0;bottom=0;right=0;collapsible=0;dropTarget=0;fillColor=none;points=[[0,0.5],[1,0.5]];portConstraint=eastwest;" vertex="1" parent="o1oF44XECiAMUcl8Ltih-92">
          <mxGeometry y="279" width="150" height="41" as="geometry" />
        </mxCell>
        <mxCell id="o1oF44XECiAMUcl8Ltih-106" value="updated_at datetime" style="shape=partialRectangle;html=1;whiteSpace=wrap;connectable=0;strokeColor=inherit;overflow=hidden;fillColor=none;top=0;left=0;bottom=0;right=0;pointerEvents=1;" vertex="1" parent="o1oF44XECiAMUcl8Ltih-105">
          <mxGeometry width="150" height="41" as="geometry">
            <mxRectangle width="150" height="41" as="alternateBounds" />
          </mxGeometry>
        </mxCell>
        <mxCell id="o1oF44XECiAMUcl8Ltih-109" style="edgeStyle=orthogonalEdgeStyle;rounded=0;orthogonalLoop=1;jettySize=auto;html=1;exitX=1;exitY=0.5;exitDx=0;exitDy=0;entryX=0;entryY=0.5;entryDx=0;entryDy=0;" edge="1" parent="1" source="o1oF44XECiAMUcl8Ltih-78" target="o1oF44XECiAMUcl8Ltih-95">
          <mxGeometry relative="1" as="geometry" />
        </mxCell>
        <mxCell id="o1oF44XECiAMUcl8Ltih-127" value="Admins" style="shape=table;startSize=30;container=1;collapsible=0;childLayout=tableLayout;" vertex="1" parent="1">
          <mxGeometry x="170" y="240" width="220" height="350" as="geometry" />
        </mxCell>
        <mxCell id="o1oF44XECiAMUcl8Ltih-128" value="" style="shape=tableRow;horizontal=0;startSize=0;swimlaneHead=0;swimlaneBody=0;strokeColor=inherit;top=0;left=0;bottom=0;right=0;collapsible=0;dropTarget=0;fillColor=none;points=[[0,0.5],[1,0.5]];portConstraint=eastwest;" vertex="1" parent="o1oF44XECiAMUcl8Ltih-127">
          <mxGeometry y="30" width="220" height="40" as="geometry" />
        </mxCell>
        <mxCell id="o1oF44XECiAMUcl8Ltih-129" value="id primary key uuid" style="shape=partialRectangle;html=1;whiteSpace=wrap;connectable=0;strokeColor=inherit;overflow=hidden;fillColor=none;top=0;left=0;bottom=0;right=0;pointerEvents=1;" vertex="1" parent="o1oF44XECiAMUcl8Ltih-128">
          <mxGeometry width="220" height="40" as="geometry">
            <mxRectangle width="220" height="40" as="alternateBounds" />
          </mxGeometry>
        </mxCell>
        <mxCell id="o1oF44XECiAMUcl8Ltih-130" value="" style="shape=tableRow;horizontal=0;startSize=0;swimlaneHead=0;swimlaneBody=0;strokeColor=inherit;top=0;left=0;bottom=0;right=0;collapsible=0;dropTarget=0;fillColor=none;points=[[0,0.5],[1,0.5]];portConstraint=eastwest;" vertex="1" parent="o1oF44XECiAMUcl8Ltih-127">
          <mxGeometry y="70" width="220" height="40" as="geometry" />
        </mxCell>
        <mxCell id="o1oF44XECiAMUcl8Ltih-131" value="name varchar not null" style="shape=partialRectangle;html=1;whiteSpace=wrap;connectable=0;strokeColor=inherit;overflow=hidden;fillColor=none;top=0;left=0;bottom=0;right=0;pointerEvents=1;" vertex="1" parent="o1oF44XECiAMUcl8Ltih-130">
          <mxGeometry width="220" height="40" as="geometry">
            <mxRectangle width="220" height="40" as="alternateBounds" />
          </mxGeometry>
        </mxCell>
        <mxCell id="o1oF44XECiAMUcl8Ltih-132" value="" style="shape=tableRow;horizontal=0;startSize=0;swimlaneHead=0;swimlaneBody=0;strokeColor=inherit;top=0;left=0;bottom=0;right=0;collapsible=0;dropTarget=0;fillColor=none;points=[[0,0.5],[1,0.5]];portConstraint=eastwest;" vertex="1" parent="o1oF44XECiAMUcl8Ltih-127">
          <mxGeometry y="110" width="220" height="40" as="geometry" />
        </mxCell>
        <mxCell id="o1oF44XECiAMUcl8Ltih-133" value="email varchar not null unique" style="shape=partialRectangle;html=1;whiteSpace=wrap;connectable=0;strokeColor=inherit;overflow=hidden;fillColor=none;top=0;left=0;bottom=0;right=0;pointerEvents=1;" vertex="1" parent="o1oF44XECiAMUcl8Ltih-132">
          <mxGeometry width="220" height="40" as="geometry">
            <mxRectangle width="220" height="40" as="alternateBounds" />
          </mxGeometry>
        </mxCell>
        <mxCell id="o1oF44XECiAMUcl8Ltih-134" value="" style="shape=tableRow;horizontal=0;startSize=0;swimlaneHead=0;swimlaneBody=0;strokeColor=inherit;top=0;left=0;bottom=0;right=0;collapsible=0;dropTarget=0;fillColor=none;points=[[0,0.5],[1,0.5]];portConstraint=eastwest;" vertex="1" parent="o1oF44XECiAMUcl8Ltih-127">
          <mxGeometry y="150" width="220" height="40" as="geometry" />
        </mxCell>
        <mxCell id="o1oF44XECiAMUcl8Ltih-135" value="password_hash varchar" style="shape=partialRectangle;html=1;whiteSpace=wrap;connectable=0;strokeColor=inherit;overflow=hidden;fillColor=none;top=0;left=0;bottom=0;right=0;pointerEvents=1;" vertex="1" parent="o1oF44XECiAMUcl8Ltih-134">
          <mxGeometry width="220" height="40" as="geometry">
            <mxRectangle width="220" height="40" as="alternateBounds" />
          </mxGeometry>
        </mxCell>
        <mxCell id="o1oF44XECiAMUcl8Ltih-136" value="" style="shape=tableRow;horizontal=0;startSize=0;swimlaneHead=0;swimlaneBody=0;strokeColor=inherit;top=0;left=0;bottom=0;right=0;collapsible=0;dropTarget=0;fillColor=none;points=[[0,0.5],[1,0.5]];portConstraint=eastwest;" vertex="1" parent="o1oF44XECiAMUcl8Ltih-127">
          <mxGeometry y="190" width="220" height="40" as="geometry" />
        </mxCell>
        <mxCell id="o1oF44XECiAMUcl8Ltih-137" value="role varchar [admin, manager]" style="shape=partialRectangle;html=1;whiteSpace=wrap;connectable=0;strokeColor=inherit;overflow=hidden;fillColor=none;top=0;left=0;bottom=0;right=0;pointerEvents=1;" vertex="1" parent="o1oF44XECiAMUcl8Ltih-136">
          <mxGeometry width="220" height="40" as="geometry">
            <mxRectangle width="220" height="40" as="alternateBounds" />
          </mxGeometry>
        </mxCell>
        <mxCell id="o1oF44XECiAMUcl8Ltih-138" value="" style="shape=tableRow;horizontal=0;startSize=0;swimlaneHead=0;swimlaneBody=0;strokeColor=inherit;top=0;left=0;bottom=0;right=0;collapsible=0;dropTarget=0;fillColor=none;points=[[0,0.5],[1,0.5]];portConstraint=eastwest;" vertex="1" parent="o1oF44XECiAMUcl8Ltih-127">
          <mxGeometry y="230" width="220" height="40" as="geometry" />
        </mxCell>
        <mxCell id="o1oF44XECiAMUcl8Ltih-139" value="tenant_id foreign_key varchar uuid" style="shape=partialRectangle;html=1;whiteSpace=wrap;connectable=0;strokeColor=inherit;overflow=hidden;fillColor=none;top=0;left=0;bottom=0;right=0;pointerEvents=1;" vertex="1" parent="o1oF44XECiAMUcl8Ltih-138">
          <mxGeometry width="220" height="40" as="geometry">
            <mxRectangle width="220" height="40" as="alternateBounds" />
          </mxGeometry>
        </mxCell>
        <mxCell id="o1oF44XECiAMUcl8Ltih-140" value="" style="shape=tableRow;horizontal=0;startSize=0;swimlaneHead=0;swimlaneBody=0;strokeColor=inherit;top=0;left=0;bottom=0;right=0;collapsible=0;dropTarget=0;fillColor=none;points=[[0,0.5],[1,0.5]];portConstraint=eastwest;" vertex="1" parent="o1oF44XECiAMUcl8Ltih-127">
          <mxGeometry y="270" width="220" height="40" as="geometry" />
        </mxCell>
        <mxCell id="o1oF44XECiAMUcl8Ltih-141" value="created_at datetime&amp;nbsp;" style="shape=partialRectangle;html=1;whiteSpace=wrap;connectable=0;strokeColor=inherit;overflow=hidden;fillColor=none;top=0;left=0;bottom=0;right=0;pointerEvents=1;" vertex="1" parent="o1oF44XECiAMUcl8Ltih-140">
          <mxGeometry width="220" height="40" as="geometry">
            <mxRectangle width="220" height="40" as="alternateBounds" />
          </mxGeometry>
        </mxCell>
        <mxCell id="o1oF44XECiAMUcl8Ltih-142" value="" style="shape=tableRow;horizontal=0;startSize=0;swimlaneHead=0;swimlaneBody=0;strokeColor=inherit;top=0;left=0;bottom=0;right=0;collapsible=0;dropTarget=0;fillColor=none;points=[[0,0.5],[1,0.5]];portConstraint=eastwest;" vertex="1" parent="o1oF44XECiAMUcl8Ltih-127">
          <mxGeometry y="310" width="220" height="40" as="geometry" />
        </mxCell>
        <mxCell id="o1oF44XECiAMUcl8Ltih-143" value="updated_at datetime" style="shape=partialRectangle;html=1;whiteSpace=wrap;connectable=0;strokeColor=inherit;overflow=hidden;fillColor=none;top=0;left=0;bottom=0;right=0;pointerEvents=1;" vertex="1" parent="o1oF44XECiAMUcl8Ltih-142">
          <mxGeometry width="220" height="40" as="geometry">
            <mxRectangle width="220" height="40" as="alternateBounds" />
          </mxGeometry>
        </mxCell>
        <mxCell id="o1oF44XECiAMUcl8Ltih-146" style="edgeStyle=orthogonalEdgeStyle;rounded=0;orthogonalLoop=1;jettySize=auto;html=1;exitX=0;exitY=0.5;exitDx=0;exitDy=0;entryX=1;entryY=0.5;entryDx=0;entryDy=0;" edge="1" parent="1" source="o1oF44XECiAMUcl8Ltih-78" target="o1oF44XECiAMUcl8Ltih-138">
          <mxGeometry relative="1" as="geometry" />
        </mxCell>
        <mxCell id="o1oF44XECiAMUcl8Ltih-147" value="Queues" style="shape=table;startSize=30;container=1;collapsible=0;childLayout=tableLayout;" vertex="1" parent="1">
          <mxGeometry x="140" y="-600" width="220" height="350" as="geometry" />
        </mxCell>
        <mxCell id="o1oF44XECiAMUcl8Ltih-148" value="" style="shape=tableRow;horizontal=0;startSize=0;swimlaneHead=0;swimlaneBody=0;strokeColor=inherit;top=0;left=0;bottom=0;right=0;collapsible=0;dropTarget=0;fillColor=none;points=[[0,0.5],[1,0.5]];portConstraint=eastwest;" vertex="1" parent="o1oF44XECiAMUcl8Ltih-147">
          <mxGeometry y="30" width="220" height="40" as="geometry" />
        </mxCell>
        <mxCell id="o1oF44XECiAMUcl8Ltih-149" value="id primary key uuid" style="shape=partialRectangle;html=1;whiteSpace=wrap;connectable=0;strokeColor=inherit;overflow=hidden;fillColor=none;top=0;left=0;bottom=0;right=0;pointerEvents=1;" vertex="1" parent="o1oF44XECiAMUcl8Ltih-148">
          <mxGeometry width="220" height="40" as="geometry">
            <mxRectangle width="220" height="40" as="alternateBounds" />
          </mxGeometry>
        </mxCell>
        <mxCell id="o1oF44XECiAMUcl8Ltih-150" value="" style="shape=tableRow;horizontal=0;startSize=0;swimlaneHead=0;swimlaneBody=0;strokeColor=inherit;top=0;left=0;bottom=0;right=0;collapsible=0;dropTarget=0;fillColor=none;points=[[0,0.5],[1,0.5]];portConstraint=eastwest;" vertex="1" parent="o1oF44XECiAMUcl8Ltih-147">
          <mxGeometry y="70" width="220" height="40" as="geometry" />
        </mxCell>
        <mxCell id="o1oF44XECiAMUcl8Ltih-151" value="tenant id Foreign Key uuid" style="shape=partialRectangle;html=1;whiteSpace=wrap;connectable=0;strokeColor=inherit;overflow=hidden;fillColor=none;top=0;left=0;bottom=0;right=0;pointerEvents=1;" vertex="1" parent="o1oF44XECiAMUcl8Ltih-150">
          <mxGeometry width="220" height="40" as="geometry">
            <mxRectangle width="220" height="40" as="alternateBounds" />
          </mxGeometry>
        </mxCell>
        <mxCell id="o1oF44XECiAMUcl8Ltih-152" value="" style="shape=tableRow;horizontal=0;startSize=0;swimlaneHead=0;swimlaneBody=0;strokeColor=inherit;top=0;left=0;bottom=0;right=0;collapsible=0;dropTarget=0;fillColor=none;points=[[0,0.5],[1,0.5]];portConstraint=eastwest;" vertex="1" parent="o1oF44XECiAMUcl8Ltih-147">
          <mxGeometry y="110" width="220" height="40" as="geometry" />
        </mxCell>
        <mxCell id="o1oF44XECiAMUcl8Ltih-153" value="name varchar not null" style="shape=partialRectangle;html=1;whiteSpace=wrap;connectable=0;strokeColor=inherit;overflow=hidden;fillColor=none;top=0;left=0;bottom=0;right=0;pointerEvents=1;" vertex="1" parent="o1oF44XECiAMUcl8Ltih-152">
          <mxGeometry width="220" height="40" as="geometry">
            <mxRectangle width="220" height="40" as="alternateBounds" />
          </mxGeometry>
        </mxCell>
        <mxCell id="o1oF44XECiAMUcl8Ltih-178" value="" style="shape=tableRow;horizontal=0;startSize=0;swimlaneHead=0;swimlaneBody=0;strokeColor=inherit;top=0;left=0;bottom=0;right=0;collapsible=0;dropTarget=0;fillColor=none;points=[[0,0.5],[1,0.5]];portConstraint=eastwest;" vertex="1" parent="o1oF44XECiAMUcl8Ltih-147">
          <mxGeometry y="150" width="220" height="40" as="geometry" />
        </mxCell>
        <mxCell id="o1oF44XECiAMUcl8Ltih-179" value="name varchar not null" style="shape=partialRectangle;html=1;whiteSpace=wrap;connectable=0;strokeColor=inherit;overflow=hidden;fillColor=none;top=0;left=0;bottom=0;right=0;pointerEvents=1;" vertex="1" parent="o1oF44XECiAMUcl8Ltih-178">
          <mxGeometry width="220" height="40" as="geometry">
            <mxRectangle width="220" height="40" as="alternateBounds" />
          </mxGeometry>
        </mxCell>
        <mxCell id="o1oF44XECiAMUcl8Ltih-154" value="" style="shape=tableRow;horizontal=0;startSize=0;swimlaneHead=0;swimlaneBody=0;strokeColor=inherit;top=0;left=0;bottom=0;right=0;collapsible=0;dropTarget=0;fillColor=none;points=[[0,0.5],[1,0.5]];portConstraint=eastwest;" vertex="1" parent="o1oF44XECiAMUcl8Ltih-147">
          <mxGeometry y="190" width="220" height="40" as="geometry" />
        </mxCell>
        <mxCell id="o1oF44XECiAMUcl8Ltih-155" value="max_capacity int default 50" style="shape=partialRectangle;html=1;whiteSpace=wrap;connectable=0;strokeColor=inherit;overflow=hidden;fillColor=none;top=0;left=0;bottom=0;right=0;pointerEvents=1;" vertex="1" parent="o1oF44XECiAMUcl8Ltih-154">
          <mxGeometry width="220" height="40" as="geometry">
            <mxRectangle width="220" height="40" as="alternateBounds" />
          </mxGeometry>
        </mxCell>
        <mxCell id="o1oF44XECiAMUcl8Ltih-156" value="" style="shape=tableRow;horizontal=0;startSize=0;swimlaneHead=0;swimlaneBody=0;strokeColor=inherit;top=0;left=0;bottom=0;right=0;collapsible=0;dropTarget=0;fillColor=none;points=[[0,0.5],[1,0.5]];portConstraint=eastwest;" vertex="1" parent="o1oF44XECiAMUcl8Ltih-147">
          <mxGeometry y="230" width="220" height="40" as="geometry" />
        </mxCell>
        <mxCell id="o1oF44XECiAMUcl8Ltih-157" value="queue_type varchar (walk in, appointment, priority)" style="shape=partialRectangle;html=1;whiteSpace=wrap;connectable=0;strokeColor=inherit;overflow=hidden;fillColor=none;top=0;left=0;bottom=0;right=0;pointerEvents=1;" vertex="1" parent="o1oF44XECiAMUcl8Ltih-156">
          <mxGeometry width="220" height="40" as="geometry">
            <mxRectangle width="220" height="40" as="alternateBounds" />
          </mxGeometry>
        </mxCell>
        <mxCell id="o1oF44XECiAMUcl8Ltih-158" value="" style="shape=tableRow;horizontal=0;startSize=0;swimlaneHead=0;swimlaneBody=0;strokeColor=inherit;top=0;left=0;bottom=0;right=0;collapsible=0;dropTarget=0;fillColor=none;points=[[0,0.5],[1,0.5]];portConstraint=eastwest;" vertex="1" parent="o1oF44XECiAMUcl8Ltih-147">
          <mxGeometry y="270" width="220" height="40" as="geometry" />
        </mxCell>
        <mxCell id="o1oF44XECiAMUcl8Ltih-159" value="created_at datetime" style="shape=partialRectangle;html=1;whiteSpace=wrap;connectable=0;strokeColor=inherit;overflow=hidden;fillColor=none;top=0;left=0;bottom=0;right=0;pointerEvents=1;" vertex="1" parent="o1oF44XECiAMUcl8Ltih-158">
          <mxGeometry width="220" height="40" as="geometry">
            <mxRectangle width="220" height="40" as="alternateBounds" />
          </mxGeometry>
        </mxCell>
        <mxCell id="o1oF44XECiAMUcl8Ltih-160" value="" style="shape=tableRow;horizontal=0;startSize=0;swimlaneHead=0;swimlaneBody=0;strokeColor=inherit;top=0;left=0;bottom=0;right=0;collapsible=0;dropTarget=0;fillColor=none;points=[[0,0.5],[1,0.5]];portConstraint=eastwest;" vertex="1" parent="o1oF44XECiAMUcl8Ltih-147">
          <mxGeometry y="310" width="220" height="40" as="geometry" />
        </mxCell>
        <mxCell id="o1oF44XECiAMUcl8Ltih-161" value="updated at datetime" style="shape=partialRectangle;html=1;whiteSpace=wrap;connectable=0;strokeColor=inherit;overflow=hidden;fillColor=none;top=0;left=0;bottom=0;right=0;pointerEvents=1;" vertex="1" parent="o1oF44XECiAMUcl8Ltih-160">
          <mxGeometry width="220" height="40" as="geometry">
            <mxRectangle width="220" height="40" as="alternateBounds" />
          </mxGeometry>
        </mxCell>
        <mxCell id="o1oF44XECiAMUcl8Ltih-162" style="edgeStyle=orthogonalEdgeStyle;rounded=0;orthogonalLoop=1;jettySize=auto;html=1;exitX=0;exitY=0.5;exitDx=0;exitDy=0;entryX=0.023;entryY=0.275;entryDx=0;entryDy=0;entryPerimeter=0;" edge="1" parent="1" source="o1oF44XECiAMUcl8Ltih-150" target="o1oF44XECiAMUcl8Ltih-78">
          <mxGeometry relative="1" as="geometry" />
        </mxCell>
        <mxCell id="o1oF44XECiAMUcl8Ltih-163" value="queue slots" style="shape=table;startSize=30;container=1;collapsible=0;childLayout=tableLayout;" vertex="1" parent="1">
          <mxGeometry x="540" y="-600" width="190" height="310" as="geometry" />
        </mxCell>
        <mxCell id="o1oF44XECiAMUcl8Ltih-164" value="" style="shape=tableRow;horizontal=0;startSize=0;swimlaneHead=0;swimlaneBody=0;strokeColor=inherit;top=0;left=0;bottom=0;right=0;collapsible=0;dropTarget=0;fillColor=none;points=[[0,0.5],[1,0.5]];portConstraint=eastwest;" vertex="1" parent="o1oF44XECiAMUcl8Ltih-163">
          <mxGeometry y="30" width="190" height="40" as="geometry" />
        </mxCell>
        <mxCell id="o1oF44XECiAMUcl8Ltih-165" value="id primary key uuid" style="shape=partialRectangle;html=1;whiteSpace=wrap;connectable=0;strokeColor=inherit;overflow=hidden;fillColor=none;top=0;left=0;bottom=0;right=0;pointerEvents=1;" vertex="1" parent="o1oF44XECiAMUcl8Ltih-164">
          <mxGeometry width="190" height="40" as="geometry">
            <mxRectangle width="190" height="40" as="alternateBounds" />
          </mxGeometry>
        </mxCell>
        <mxCell id="o1oF44XECiAMUcl8Ltih-166" value="" style="shape=tableRow;horizontal=0;startSize=0;swimlaneHead=0;swimlaneBody=0;strokeColor=inherit;top=0;left=0;bottom=0;right=0;collapsible=0;dropTarget=0;fillColor=none;points=[[0,0.5],[1,0.5]];portConstraint=eastwest;" vertex="1" parent="o1oF44XECiAMUcl8Ltih-163">
          <mxGeometry y="70" width="190" height="40" as="geometry" />
        </mxCell>
        <mxCell id="o1oF44XECiAMUcl8Ltih-167" value="queue_id FK uuid" style="shape=partialRectangle;html=1;whiteSpace=wrap;connectable=0;strokeColor=inherit;overflow=hidden;fillColor=none;top=0;left=0;bottom=0;right=0;pointerEvents=1;" vertex="1" parent="o1oF44XECiAMUcl8Ltih-166">
          <mxGeometry width="190" height="40" as="geometry">
            <mxRectangle width="190" height="40" as="alternateBounds" />
          </mxGeometry>
        </mxCell>
        <mxCell id="o1oF44XECiAMUcl8Ltih-168" value="" style="shape=tableRow;horizontal=0;startSize=0;swimlaneHead=0;swimlaneBody=0;strokeColor=inherit;top=0;left=0;bottom=0;right=0;collapsible=0;dropTarget=0;fillColor=none;points=[[0,0.5],[1,0.5]];portConstraint=eastwest;" vertex="1" parent="o1oF44XECiAMUcl8Ltih-163">
          <mxGeometry y="110" width="190" height="40" as="geometry" />
        </mxCell>
        <mxCell id="o1oF44XECiAMUcl8Ltih-169" value="user_id FK uuid" style="shape=partialRectangle;html=1;whiteSpace=wrap;connectable=0;strokeColor=inherit;overflow=hidden;fillColor=none;top=0;left=0;bottom=0;right=0;pointerEvents=1;" vertex="1" parent="o1oF44XECiAMUcl8Ltih-168">
          <mxGeometry width="190" height="40" as="geometry">
            <mxRectangle width="190" height="40" as="alternateBounds" />
          </mxGeometry>
        </mxCell>
        <mxCell id="o1oF44XECiAMUcl8Ltih-170" value="" style="shape=tableRow;horizontal=0;startSize=0;swimlaneHead=0;swimlaneBody=0;strokeColor=inherit;top=0;left=0;bottom=0;right=0;collapsible=0;dropTarget=0;fillColor=none;points=[[0,0.5],[1,0.5]];portConstraint=eastwest;" vertex="1" parent="o1oF44XECiAMUcl8Ltih-163">
          <mxGeometry y="150" width="190" height="40" as="geometry" />
        </mxCell>
        <mxCell id="o1oF44XECiAMUcl8Ltih-171" value="status varchar not null" style="shape=partialRectangle;html=1;whiteSpace=wrap;connectable=0;strokeColor=inherit;overflow=hidden;fillColor=none;top=0;left=0;bottom=0;right=0;pointerEvents=1;" vertex="1" parent="o1oF44XECiAMUcl8Ltih-170">
          <mxGeometry width="190" height="40" as="geometry">
            <mxRectangle width="190" height="40" as="alternateBounds" />
          </mxGeometry>
        </mxCell>
        <mxCell id="o1oF44XECiAMUcl8Ltih-172" value="" style="shape=tableRow;horizontal=0;startSize=0;swimlaneHead=0;swimlaneBody=0;strokeColor=inherit;top=0;left=0;bottom=0;right=0;collapsible=0;dropTarget=0;fillColor=none;points=[[0,0.5],[1,0.5]];portConstraint=eastwest;" vertex="1" parent="o1oF44XECiAMUcl8Ltih-163">
          <mxGeometry y="190" width="190" height="40" as="geometry" />
        </mxCell>
        <mxCell id="o1oF44XECiAMUcl8Ltih-173" value="scheduled_time timestamp" style="shape=partialRectangle;html=1;whiteSpace=wrap;connectable=0;strokeColor=inherit;overflow=hidden;fillColor=none;top=0;left=0;bottom=0;right=0;pointerEvents=1;" vertex="1" parent="o1oF44XECiAMUcl8Ltih-172">
          <mxGeometry width="190" height="40" as="geometry">
            <mxRectangle width="190" height="40" as="alternateBounds" />
          </mxGeometry>
        </mxCell>
        <mxCell id="o1oF44XECiAMUcl8Ltih-174" value="" style="shape=tableRow;horizontal=0;startSize=0;swimlaneHead=0;swimlaneBody=0;strokeColor=inherit;top=0;left=0;bottom=0;right=0;collapsible=0;dropTarget=0;fillColor=none;points=[[0,0.5],[1,0.5]];portConstraint=eastwest;" vertex="1" parent="o1oF44XECiAMUcl8Ltih-163">
          <mxGeometry y="230" width="190" height="40" as="geometry" />
        </mxCell>
        <mxCell id="o1oF44XECiAMUcl8Ltih-175" value="created_at datetime" style="shape=partialRectangle;html=1;whiteSpace=wrap;connectable=0;strokeColor=inherit;overflow=hidden;fillColor=none;top=0;left=0;bottom=0;right=0;pointerEvents=1;" vertex="1" parent="o1oF44XECiAMUcl8Ltih-174">
          <mxGeometry width="190" height="40" as="geometry">
            <mxRectangle width="190" height="40" as="alternateBounds" />
          </mxGeometry>
        </mxCell>
        <mxCell id="o1oF44XECiAMUcl8Ltih-176" value="" style="shape=tableRow;horizontal=0;startSize=0;swimlaneHead=0;swimlaneBody=0;strokeColor=inherit;top=0;left=0;bottom=0;right=0;collapsible=0;dropTarget=0;fillColor=none;points=[[0,0.5],[1,0.5]];portConstraint=eastwest;" vertex="1" parent="o1oF44XECiAMUcl8Ltih-163">
          <mxGeometry y="270" width="190" height="40" as="geometry" />
        </mxCell>
        <mxCell id="o1oF44XECiAMUcl8Ltih-177" value="updated_at datetime" style="shape=partialRectangle;html=1;whiteSpace=wrap;connectable=0;strokeColor=inherit;overflow=hidden;fillColor=none;top=0;left=0;bottom=0;right=0;pointerEvents=1;" vertex="1" parent="o1oF44XECiAMUcl8Ltih-176">
          <mxGeometry width="190" height="40" as="geometry">
            <mxRectangle width="190" height="40" as="alternateBounds" />
          </mxGeometry>
        </mxCell>
        <mxCell id="o1oF44XECiAMUcl8Ltih-180" style="edgeStyle=orthogonalEdgeStyle;rounded=0;orthogonalLoop=1;jettySize=auto;html=1;exitX=1;exitY=0.5;exitDx=0;exitDy=0;entryX=1;entryY=0.5;entryDx=0;entryDy=0;" edge="1" parent="1" source="o1oF44XECiAMUcl8Ltih-93" target="o1oF44XECiAMUcl8Ltih-168">
          <mxGeometry relative="1" as="geometry" />
        </mxCell>
        <mxCell id="o1oF44XECiAMUcl8Ltih-182" style="edgeStyle=orthogonalEdgeStyle;rounded=0;orthogonalLoop=1;jettySize=auto;html=1;exitX=1;exitY=0.5;exitDx=0;exitDy=0;entryX=0.021;entryY=0.725;entryDx=0;entryDy=0;entryPerimeter=0;" edge="1" parent="1" source="o1oF44XECiAMUcl8Ltih-148" target="o1oF44XECiAMUcl8Ltih-166">
          <mxGeometry relative="1" as="geometry" />
        </mxCell>
        <mxCell id="o1oF44XECiAMUcl8Ltih-183" value="Payments" style="shape=table;startSize=30;container=1;collapsible=0;childLayout=tableLayout;" vertex="1" parent="1">
          <mxGeometry x="560" y="240" width="180" height="350" as="geometry" />
        </mxCell>
        <mxCell id="o1oF44XECiAMUcl8Ltih-184" value="" style="shape=tableRow;horizontal=0;startSize=0;swimlaneHead=0;swimlaneBody=0;strokeColor=inherit;top=0;left=0;bottom=0;right=0;collapsible=0;dropTarget=0;fillColor=none;points=[[0,0.5],[1,0.5]];portConstraint=eastwest;" vertex="1" parent="o1oF44XECiAMUcl8Ltih-183">
          <mxGeometry y="30" width="180" height="40" as="geometry" />
        </mxCell>
        <mxCell id="o1oF44XECiAMUcl8Ltih-185" value="id primary key uuid" style="shape=partialRectangle;html=1;whiteSpace=wrap;connectable=0;strokeColor=inherit;overflow=hidden;fillColor=none;top=0;left=0;bottom=0;right=0;pointerEvents=1;" vertex="1" parent="o1oF44XECiAMUcl8Ltih-184">
          <mxGeometry width="180" height="40" as="geometry">
            <mxRectangle width="180" height="40" as="alternateBounds" />
          </mxGeometry>
        </mxCell>
        <mxCell id="o1oF44XECiAMUcl8Ltih-186" value="" style="shape=tableRow;horizontal=0;startSize=0;swimlaneHead=0;swimlaneBody=0;strokeColor=inherit;top=0;left=0;bottom=0;right=0;collapsible=0;dropTarget=0;fillColor=none;points=[[0,0.5],[1,0.5]];portConstraint=eastwest;" vertex="1" parent="o1oF44XECiAMUcl8Ltih-183">
          <mxGeometry y="70" width="180" height="40" as="geometry" />
        </mxCell>
        <mxCell id="o1oF44XECiAMUcl8Ltih-187" value="tenant_id fk uuid on delete cascade" style="shape=partialRectangle;html=1;whiteSpace=wrap;connectable=0;strokeColor=inherit;overflow=hidden;fillColor=none;top=0;left=0;bottom=0;right=0;pointerEvents=1;" vertex="1" parent="o1oF44XECiAMUcl8Ltih-186">
          <mxGeometry width="180" height="40" as="geometry">
            <mxRectangle width="180" height="40" as="alternateBounds" />
          </mxGeometry>
        </mxCell>
        <mxCell id="o1oF44XECiAMUcl8Ltih-188" value="" style="shape=tableRow;horizontal=0;startSize=0;swimlaneHead=0;swimlaneBody=0;strokeColor=inherit;top=0;left=0;bottom=0;right=0;collapsible=0;dropTarget=0;fillColor=none;points=[[0,0.5],[1,0.5]];portConstraint=eastwest;" vertex="1" parent="o1oF44XECiAMUcl8Ltih-183">
          <mxGeometry y="110" width="180" height="40" as="geometry" />
        </mxCell>
        <mxCell id="o1oF44XECiAMUcl8Ltih-189" value="amount decimal(10,2)" style="shape=partialRectangle;html=1;whiteSpace=wrap;connectable=0;strokeColor=inherit;overflow=hidden;fillColor=none;top=0;left=0;bottom=0;right=0;pointerEvents=1;" vertex="1" parent="o1oF44XECiAMUcl8Ltih-188">
          <mxGeometry width="180" height="40" as="geometry">
            <mxRectangle width="180" height="40" as="alternateBounds" />
          </mxGeometry>
        </mxCell>
        <mxCell id="o1oF44XECiAMUcl8Ltih-190" value="" style="shape=tableRow;horizontal=0;startSize=0;swimlaneHead=0;swimlaneBody=0;strokeColor=inherit;top=0;left=0;bottom=0;right=0;collapsible=0;dropTarget=0;fillColor=none;points=[[0,0.5],[1,0.5]];portConstraint=eastwest;" vertex="1" parent="o1oF44XECiAMUcl8Ltih-183">
          <mxGeometry y="150" width="180" height="40" as="geometry" />
        </mxCell>
        <mxCell id="o1oF44XECiAMUcl8Ltih-191" value="currency varchar" style="shape=partialRectangle;html=1;whiteSpace=wrap;connectable=0;strokeColor=inherit;overflow=hidden;fillColor=none;top=0;left=0;bottom=0;right=0;pointerEvents=1;" vertex="1" parent="o1oF44XECiAMUcl8Ltih-190">
          <mxGeometry width="180" height="40" as="geometry">
            <mxRectangle width="180" height="40" as="alternateBounds" />
          </mxGeometry>
        </mxCell>
        <mxCell id="o1oF44XECiAMUcl8Ltih-192" value="" style="shape=tableRow;horizontal=0;startSize=0;swimlaneHead=0;swimlaneBody=0;strokeColor=inherit;top=0;left=0;bottom=0;right=0;collapsible=0;dropTarget=0;fillColor=none;points=[[0,0.5],[1,0.5]];portConstraint=eastwest;" vertex="1" parent="o1oF44XECiAMUcl8Ltih-183">
          <mxGeometry y="190" width="180" height="40" as="geometry" />
        </mxCell>
        <mxCell id="o1oF44XECiAMUcl8Ltih-193" value="payment_status varchar not null" style="shape=partialRectangle;html=1;whiteSpace=wrap;connectable=0;strokeColor=inherit;overflow=hidden;fillColor=none;top=0;left=0;bottom=0;right=0;pointerEvents=1;" vertex="1" parent="o1oF44XECiAMUcl8Ltih-192">
          <mxGeometry width="180" height="40" as="geometry">
            <mxRectangle width="180" height="40" as="alternateBounds" />
          </mxGeometry>
        </mxCell>
        <mxCell id="o1oF44XECiAMUcl8Ltih-194" value="" style="shape=tableRow;horizontal=0;startSize=0;swimlaneHead=0;swimlaneBody=0;strokeColor=inherit;top=0;left=0;bottom=0;right=0;collapsible=0;dropTarget=0;fillColor=none;points=[[0,0.5],[1,0.5]];portConstraint=eastwest;" vertex="1" parent="o1oF44XECiAMUcl8Ltih-183">
          <mxGeometry y="230" width="180" height="40" as="geometry" />
        </mxCell>
        <mxCell id="o1oF44XECiAMUcl8Ltih-195" value="transcation_id varchar unique not null" style="shape=partialRectangle;html=1;whiteSpace=wrap;connectable=0;strokeColor=inherit;overflow=hidden;fillColor=none;top=0;left=0;bottom=0;right=0;pointerEvents=1;" vertex="1" parent="o1oF44XECiAMUcl8Ltih-194">
          <mxGeometry width="180" height="40" as="geometry">
            <mxRectangle width="180" height="40" as="alternateBounds" />
          </mxGeometry>
        </mxCell>
        <mxCell id="o1oF44XECiAMUcl8Ltih-196" value="" style="shape=tableRow;horizontal=0;startSize=0;swimlaneHead=0;swimlaneBody=0;strokeColor=inherit;top=0;left=0;bottom=0;right=0;collapsible=0;dropTarget=0;fillColor=none;points=[[0,0.5],[1,0.5]];portConstraint=eastwest;" vertex="1" parent="o1oF44XECiAMUcl8Ltih-183">
          <mxGeometry y="270" width="180" height="40" as="geometry" />
        </mxCell>
        <mxCell id="o1oF44XECiAMUcl8Ltih-197" value="created_at datetime" style="shape=partialRectangle;html=1;whiteSpace=wrap;connectable=0;strokeColor=inherit;overflow=hidden;fillColor=none;top=0;left=0;bottom=0;right=0;pointerEvents=1;" vertex="1" parent="o1oF44XECiAMUcl8Ltih-196">
          <mxGeometry width="180" height="40" as="geometry">
            <mxRectangle width="180" height="40" as="alternateBounds" />
          </mxGeometry>
        </mxCell>
        <mxCell id="o1oF44XECiAMUcl8Ltih-198" value="" style="shape=tableRow;horizontal=0;startSize=0;swimlaneHead=0;swimlaneBody=0;strokeColor=inherit;top=0;left=0;bottom=0;right=0;collapsible=0;dropTarget=0;fillColor=none;points=[[0,0.5],[1,0.5]];portConstraint=eastwest;" vertex="1" parent="o1oF44XECiAMUcl8Ltih-183">
          <mxGeometry y="310" width="180" height="40" as="geometry" />
        </mxCell>
        <mxCell id="o1oF44XECiAMUcl8Ltih-199" value="updated_at datetime" style="shape=partialRectangle;html=1;whiteSpace=wrap;connectable=0;strokeColor=inherit;overflow=hidden;fillColor=none;top=0;left=0;bottom=0;right=0;pointerEvents=1;" vertex="1" parent="o1oF44XECiAMUcl8Ltih-198">
          <mxGeometry width="180" height="40" as="geometry">
            <mxRectangle width="180" height="40" as="alternateBounds" />
          </mxGeometry>
        </mxCell>
        <mxCell id="o1oF44XECiAMUcl8Ltih-200" style="edgeStyle=orthogonalEdgeStyle;rounded=0;orthogonalLoop=1;jettySize=auto;html=1;exitX=0;exitY=0.5;exitDx=0;exitDy=0;entryX=0.995;entryY=0.1;entryDx=0;entryDy=0;entryPerimeter=0;" edge="1" parent="1" source="o1oF44XECiAMUcl8Ltih-186" target="o1oF44XECiAMUcl8Ltih-78">
          <mxGeometry relative="1" as="geometry" />
        </mxCell>
        <mxCell id="o1oF44XECiAMUcl8Ltih-204" value="notifications" style="shape=table;startSize=30;container=1;collapsible=0;childLayout=tableLayout;" vertex="1" parent="1">
          <mxGeometry x="811" y="-100" width="190" height="310" as="geometry" />
        </mxCell>
        <mxCell id="o1oF44XECiAMUcl8Ltih-205" value="" style="shape=tableRow;horizontal=0;startSize=0;swimlaneHead=0;swimlaneBody=0;strokeColor=inherit;top=0;left=0;bottom=0;right=0;collapsible=0;dropTarget=0;fillColor=none;points=[[0,0.5],[1,0.5]];portConstraint=eastwest;" vertex="1" parent="o1oF44XECiAMUcl8Ltih-204">
          <mxGeometry y="30" width="190" height="40" as="geometry" />
        </mxCell>
        <mxCell id="o1oF44XECiAMUcl8Ltih-206" value="id primarykey varchar uuid" style="shape=partialRectangle;html=1;whiteSpace=wrap;connectable=0;strokeColor=inherit;overflow=hidden;fillColor=none;top=0;left=0;bottom=0;right=0;pointerEvents=1;" vertex="1" parent="o1oF44XECiAMUcl8Ltih-205">
          <mxGeometry width="190" height="40" as="geometry">
            <mxRectangle width="190" height="40" as="alternateBounds" />
          </mxGeometry>
        </mxCell>
        <mxCell id="o1oF44XECiAMUcl8Ltih-207" value="" style="shape=tableRow;horizontal=0;startSize=0;swimlaneHead=0;swimlaneBody=0;strokeColor=inherit;top=0;left=0;bottom=0;right=0;collapsible=0;dropTarget=0;fillColor=none;points=[[0,0.5],[1,0.5]];portConstraint=eastwest;" vertex="1" parent="o1oF44XECiAMUcl8Ltih-204">
          <mxGeometry y="70" width="190" height="40" as="geometry" />
        </mxCell>
        <mxCell id="o1oF44XECiAMUcl8Ltih-208" value="receipient_id fk (users) uuid" style="shape=partialRectangle;html=1;whiteSpace=wrap;connectable=0;strokeColor=inherit;overflow=hidden;fillColor=none;top=0;left=0;bottom=0;right=0;pointerEvents=1;" vertex="1" parent="o1oF44XECiAMUcl8Ltih-207">
          <mxGeometry width="190" height="40" as="geometry">
            <mxRectangle width="190" height="40" as="alternateBounds" />
          </mxGeometry>
        </mxCell>
        <mxCell id="o1oF44XECiAMUcl8Ltih-209" value="" style="shape=tableRow;horizontal=0;startSize=0;swimlaneHead=0;swimlaneBody=0;strokeColor=inherit;top=0;left=0;bottom=0;right=0;collapsible=0;dropTarget=0;fillColor=none;points=[[0,0.5],[1,0.5]];portConstraint=eastwest;" vertex="1" parent="o1oF44XECiAMUcl8Ltih-204">
          <mxGeometry y="110" width="190" height="40" as="geometry" />
        </mxCell>
        <mxCell id="o1oF44XECiAMUcl8Ltih-210" value="recipient_type&amp;nbsp;varchar [users,admin]&amp;nbsp;" style="shape=partialRectangle;html=1;whiteSpace=wrap;connectable=0;strokeColor=inherit;overflow=hidden;fillColor=none;top=0;left=0;bottom=0;right=0;pointerEvents=1;" vertex="1" parent="o1oF44XECiAMUcl8Ltih-209">
          <mxGeometry width="190" height="40" as="geometry">
            <mxRectangle width="190" height="40" as="alternateBounds" />
          </mxGeometry>
        </mxCell>
        <mxCell id="o1oF44XECiAMUcl8Ltih-211" value="" style="shape=tableRow;horizontal=0;startSize=0;swimlaneHead=0;swimlaneBody=0;strokeColor=inherit;top=0;left=0;bottom=0;right=0;collapsible=0;dropTarget=0;fillColor=none;points=[[0,0.5],[1,0.5]];portConstraint=eastwest;" vertex="1" parent="o1oF44XECiAMUcl8Ltih-204">
          <mxGeometry y="150" width="190" height="40" as="geometry" />
        </mxCell>
        <mxCell id="o1oF44XECiAMUcl8Ltih-212" value="message text" style="shape=partialRectangle;html=1;whiteSpace=wrap;connectable=0;strokeColor=inherit;overflow=hidden;fillColor=none;top=0;left=0;bottom=0;right=0;pointerEvents=1;" vertex="1" parent="o1oF44XECiAMUcl8Ltih-211">
          <mxGeometry width="190" height="40" as="geometry">
            <mxRectangle width="190" height="40" as="alternateBounds" />
          </mxGeometry>
        </mxCell>
        <mxCell id="o1oF44XECiAMUcl8Ltih-213" value="" style="shape=tableRow;horizontal=0;startSize=0;swimlaneHead=0;swimlaneBody=0;strokeColor=inherit;top=0;left=0;bottom=0;right=0;collapsible=0;dropTarget=0;fillColor=none;points=[[0,0.5],[1,0.5]];portConstraint=eastwest;" vertex="1" parent="o1oF44XECiAMUcl8Ltih-204">
          <mxGeometry y="190" width="190" height="40" as="geometry" />
        </mxCell>
        <mxCell id="o1oF44XECiAMUcl8Ltih-214" value="status [ send, delivered, failed, read]" style="shape=partialRectangle;html=1;whiteSpace=wrap;connectable=0;strokeColor=inherit;overflow=hidden;fillColor=none;top=0;left=0;bottom=0;right=0;pointerEvents=1;" vertex="1" parent="o1oF44XECiAMUcl8Ltih-213">
          <mxGeometry width="190" height="40" as="geometry">
            <mxRectangle width="190" height="40" as="alternateBounds" />
          </mxGeometry>
        </mxCell>
        <mxCell id="o1oF44XECiAMUcl8Ltih-215" value="" style="shape=tableRow;horizontal=0;startSize=0;swimlaneHead=0;swimlaneBody=0;strokeColor=inherit;top=0;left=0;bottom=0;right=0;collapsible=0;dropTarget=0;fillColor=none;points=[[0,0.5],[1,0.5]];portConstraint=eastwest;" vertex="1" parent="o1oF44XECiAMUcl8Ltih-204">
          <mxGeometry y="230" width="190" height="40" as="geometry" />
        </mxCell>
        <mxCell id="o1oF44XECiAMUcl8Ltih-216" value="created_at datetime" style="shape=partialRectangle;html=1;whiteSpace=wrap;connectable=0;strokeColor=inherit;overflow=hidden;fillColor=none;top=0;left=0;bottom=0;right=0;pointerEvents=1;" vertex="1" parent="o1oF44XECiAMUcl8Ltih-215">
          <mxGeometry width="190" height="40" as="geometry">
            <mxRectangle width="190" height="40" as="alternateBounds" />
          </mxGeometry>
        </mxCell>
        <mxCell id="o1oF44XECiAMUcl8Ltih-217" value="" style="shape=tableRow;horizontal=0;startSize=0;swimlaneHead=0;swimlaneBody=0;strokeColor=inherit;top=0;left=0;bottom=0;right=0;collapsible=0;dropTarget=0;fillColor=none;points=[[0,0.5],[1,0.5]];portConstraint=eastwest;" vertex="1" parent="o1oF44XECiAMUcl8Ltih-204">
          <mxGeometry y="270" width="190" height="40" as="geometry" />
        </mxCell>
        <mxCell id="o1oF44XECiAMUcl8Ltih-218" value="updated_at datetime" style="shape=partialRectangle;html=1;whiteSpace=wrap;connectable=0;strokeColor=inherit;overflow=hidden;fillColor=none;top=0;left=0;bottom=0;right=0;pointerEvents=1;" vertex="1" parent="o1oF44XECiAMUcl8Ltih-217">
          <mxGeometry width="190" height="40" as="geometry">
            <mxRectangle width="190" height="40" as="alternateBounds" />
          </mxGeometry>
        </mxCell>
        <mxCell id="o1oF44XECiAMUcl8Ltih-219" style="edgeStyle=orthogonalEdgeStyle;rounded=0;orthogonalLoop=1;jettySize=auto;html=1;exitX=1;exitY=0.5;exitDx=0;exitDy=0;entryX=0;entryY=0.5;entryDx=0;entryDy=0;" edge="1" parent="1" source="o1oF44XECiAMUcl8Ltih-93" target="o1oF44XECiAMUcl8Ltih-207">
          <mxGeometry relative="1" as="geometry" />
        </mxCell>
      </root>
    </mxGraphModel>
  </diagram>
</mxfile>
